<svg width="300" height="100" viewBox="0 0 300 100" fill="none" xmlns="http://www.w3.org/2000/svg">
<g filter="url(#filter0_b_22_4)">
<rect width="300" height="100" rx="20" fill="white" fill-opacity="0.8"/>
</g>
<path d="M111.92 44V41.72L117.392 35.888C118.128 35.088 118.656 34.384 118.976 33.776C119.296 33.152 119.456 32.52 119.456 31.88C119.456 30.248 118.472 29.432 116.504 29.432C114.968 29.432 113.552 30.008 112.256 31.16L111.224 28.856C111.896 28.248 112.736 27.76 113.744 27.392C114.752 27.024 115.8 26.84 116.888 26.84C118.696 26.84 120.08 27.248 121.04 28.064C122.016 28.88 122.504 30.048 122.504 31.568C122.504 32.592 122.256 33.576 121.76 34.52C121.28 35.464 120.52 36.48 119.48 37.568L115.76 41.456H123.152V44H111.92ZM132.215 44.24C131.111 44.24 130.039 44.072 128.999 43.736C127.959 43.384 127.111 42.912 126.455 42.32L127.463 39.968C128.919 41.088 130.487 41.648 132.167 41.648C133.175 41.648 133.959 41.392 134.519 40.88C135.095 40.352 135.383 39.648 135.383 38.768C135.383 37.872 135.111 37.152 134.567 36.608C134.023 36.048 133.279 35.768 132.335 35.768C130.991 35.768 129.879 36.304 128.999 37.376H126.935V27.08H137.327V29.624H129.935V34.208C130.783 33.568 131.823 33.248 133.055 33.248C134.127 33.248 135.055 33.48 135.839 33.944C136.639 34.392 137.255 35.024 137.687 35.84C138.135 36.64 138.359 37.576 138.359 38.648C138.359 39.752 138.111 40.728 137.615 41.576C137.119 42.408 136.407 43.064 135.479 43.544C134.567 44.008 133.479 44.24 132.215 44.24ZM146.941 44.24C144.941 44.24 143.413 43.488 142.357 41.984C141.301 40.464 140.773 38.304 140.773 35.504C140.773 32.672 141.301 30.52 142.357 29.048C143.413 27.576 144.941 26.84 146.941 26.84C148.957 26.84 150.485 27.576 151.525 29.048C152.581 30.52 153.109 32.664 153.109 35.48C153.109 38.296 152.581 40.464 151.525 41.984C150.469 43.488 148.941 44.24 146.941 44.24ZM146.941 41.72C148.029 41.72 148.829 41.224 149.341 40.232C149.869 39.224 150.133 37.64 150.133 35.48C150.133 33.336 149.869 31.784 149.341 30.824C148.829 29.848 148.029 29.36 146.941 29.36C145.869 29.36 145.069 29.848 144.541 30.824C144.013 31.784 143.749 33.336 143.749 35.48C143.749 37.64 144.013 39.224 144.541 40.232C145.069 41.224 145.869 41.72 146.941 41.72ZM156.172 44V27.08H159.172V37.256H159.22L163.948 32.264H167.572L162.244 37.88L167.908 44H164.236L159.22 38.768H159.172V44H156.172Z" fill="#595959"/>
<path d="M111.64 74V59.9H117.48C119 59.9 120.173 60.28 121 61.04C121.827 61.7867 122.24 62.84 122.24 64.2C122.24 65.5733 121.827 66.64 121 67.4C120.173 68.1467 119 68.52 117.48 68.52H113.72V74H111.64ZM113.72 66.86H117.18C119.207 66.86 120.22 65.9733 120.22 64.2C120.22 62.44 119.207 61.56 117.18 61.56H113.72V66.86ZM127.832 74.18C126.765 74.18 125.965 73.88 125.432 73.28C124.912 72.68 124.652 71.8 124.652 70.64V59.9H126.672V70.52C126.672 71.84 127.212 72.5 128.292 72.5C128.452 72.5 128.599 72.4933 128.732 72.48C128.879 72.4667 129.025 72.44 129.172 72.4L129.132 74.02C128.679 74.1267 128.245 74.18 127.832 74.18ZM134.285 74.18C133.605 74.18 132.999 74.0467 132.465 73.78C131.932 73.5133 131.505 73.1533 131.185 72.7C130.879 72.2467 130.725 71.7333 130.725 71.16C130.725 70.44 130.905 69.8733 131.265 69.46C131.639 69.0467 132.245 68.7467 133.085 68.56C133.939 68.3733 135.085 68.28 136.525 68.28H137.205V67.76C137.205 67 137.045 66.4533 136.725 66.12C136.405 65.7867 135.879 65.62 135.145 65.62C134.585 65.62 134.025 65.7067 133.465 65.88C132.905 66.04 132.332 66.3 131.745 66.66L131.125 65.24C131.632 64.88 132.265 64.5933 133.025 64.38C133.785 64.1667 134.512 64.06 135.205 64.06C136.539 64.06 137.525 64.38 138.165 65.02C138.805 65.6467 139.125 66.6333 139.125 67.98V74H137.225V72.38C136.985 72.94 136.612 73.38 136.105 73.7C135.599 74.02 134.992 74.18 134.285 74.18ZM134.685 72.74C135.405 72.74 136.005 72.4867 136.485 71.98C136.965 71.4733 137.205 70.8333 137.205 70.06V69.52H136.545C135.572 69.52 134.805 69.5667 134.245 69.66C133.699 69.7533 133.305 69.9133 133.065 70.14C132.839 70.3533 132.725 70.6533 132.725 71.04C132.725 71.5467 132.899 71.96 133.245 72.28C133.592 72.5867 134.072 72.74 134.685 72.74ZM142.308 74V64.24H144.268V65.86C144.601 65.2733 145.054 64.8267 145.628 64.52C146.214 64.2133 146.868 64.06 147.588 64.06C149.894 64.06 151.048 65.3667 151.048 67.98V74H149.028V68.1C149.028 67.26 148.861 66.6467 148.528 66.26C148.208 65.8733 147.701 65.68 147.008 65.68C146.194 65.68 145.541 65.94 145.048 66.46C144.568 66.9667 144.328 67.64 144.328 68.48V74H142.308ZM163.485 74V67.42L158.085 59.9H160.485L164.565 65.6L168.645 59.9H170.945L165.545 67.44V74H163.485ZM175.033 74.18C174.046 74.18 173.193 73.9733 172.473 73.56C171.753 73.1467 171.193 72.5667 170.793 71.82C170.406 71.06 170.213 70.16 170.213 69.12C170.213 68.08 170.406 67.1867 170.793 66.44C171.193 65.68 171.753 65.0933 172.473 64.68C173.193 64.2667 174.046 64.06 175.033 64.06C175.993 64.06 176.833 64.2667 177.553 64.68C178.273 65.0933 178.833 65.68 179.233 66.44C179.633 67.1867 179.833 68.08 179.833 69.12C179.833 70.16 179.633 71.06 179.233 71.82C178.833 72.5667 178.273 73.1467 177.553 73.56C176.833 73.9733 175.993 74.18 175.033 74.18ZM175.033 72.62C175.859 72.62 176.526 72.32 177.033 71.72C177.539 71.12 177.793 70.2533 177.793 69.12C177.793 67.9867 177.539 67.1267 177.033 66.54C176.526 65.94 175.859 65.64 175.033 65.64C174.193 65.64 173.519 65.94 173.013 66.54C172.506 67.1267 172.253 67.9867 172.253 69.12C172.253 70.2533 172.506 71.12 173.013 71.72C173.519 72.32 174.193 72.62 175.033 72.62ZM185.981 74.18C183.621 74.18 182.441 72.8667 182.441 70.24V64.24H184.461V70.26C184.461 71.0467 184.621 71.6267 184.941 72C185.261 72.3733 185.768 72.56 186.461 72.56C187.221 72.56 187.835 72.3067 188.301 71.8C188.781 71.2933 189.021 70.6133 189.021 69.76V64.24H191.041V74H189.081V72.44C188.761 73.0133 188.335 73.4467 187.801 73.74C187.268 74.0333 186.661 74.18 185.981 74.18ZM194.288 74V64.24H196.248V65.98C196.755 64.82 197.808 64.1733 199.408 64.04L200.068 64L200.208 65.72L198.988 65.84C197.215 66.0133 196.328 66.9267 196.328 68.58V74H194.288ZM211.463 74V61.64H206.463V59.9H218.523V61.64H213.523V74H211.463ZM218.886 74V64.24H220.846V65.98C221.353 64.82 222.406 64.1733 224.006 64.04L224.666 64L224.806 65.72L223.586 65.84C221.813 66.0133 220.926 66.9267 220.926 68.58V74H218.886ZM226.567 61.98V59.88H228.927V61.98H226.567ZM226.747 74V64.24H228.767V74H226.747ZM232.011 77.6V64.24H233.991V65.9C234.271 65.34 234.697 64.8933 235.271 64.56C235.844 64.2267 236.504 64.06 237.251 64.06C238.117 64.06 238.871 64.2667 239.511 64.68C240.164 65.0933 240.664 65.68 241.011 66.44C241.371 67.1867 241.551 68.08 241.551 69.12C241.551 70.16 241.371 71.06 241.011 71.82C240.664 72.58 240.164 73.1667 239.511 73.58C238.871 73.98 238.117 74.18 237.251 74.18C236.531 74.18 235.884 74.0267 235.311 73.72C234.751 73.4 234.324 72.9667 234.031 72.42V77.6H232.011ZM236.751 72.62C237.591 72.62 238.257 72.32 238.751 71.72C239.257 71.12 239.511 70.2533 239.511 69.12C239.511 67.9867 239.257 67.1267 238.751 66.54C238.257 65.94 237.591 65.64 236.751 65.64C235.911 65.64 235.237 65.94 234.731 66.54C234.237 67.1267 233.991 67.9867 233.991 69.12C233.991 70.2533 234.237 71.12 234.731 71.72C235.237 72.32 235.911 72.62 236.751 72.62Z" fill="#545567"/>
<rect x="28" y="25" width="50" height="50" rx="8" fill="#EE5060"/>
<g clip-path="url(#clip0_22_4)">
<path d="M46.125 36.25C45.5826 36.25 45.1429 36.6897 45.1429 37.2322V39.1964H47.1071V37.2322C47.1071 36.6897 46.6674 36.25 46.125 36.25Z" fill="white"/>
<path d="M59.875 36.25C59.3325 36.25 58.8928 36.6897 58.8928 37.2322V39.1964H60.8571V37.2322C60.8571 36.6897 60.4174 36.25 59.875 36.25Z" fill="white"/>
<path d="M63.8036 39.1964H60.8571V43.125C60.8571 43.6675 60.4174 44.1072 59.875 44.1072C59.3325 44.1072 58.8928 43.6675 58.8928 43.125V39.1964H47.1071V43.125C47.1071 43.6675 46.6674 44.1072 46.125 44.1072C45.5825 44.1072 45.1428 43.6675 45.1428 43.125V39.1964H42.1964C40.5692 39.1964 39.25 40.5156 39.25 42.1429V60.8036C39.25 62.4309 40.5692 63.75 42.1964 63.75H63.8036C65.4308 63.75 66.75 62.4309 66.75 60.8036V42.1429C66.75 40.5156 65.4308 39.1964 63.8036 39.1964ZM64.7857 60.8036C64.7857 61.346 64.346 61.7857 63.8035 61.7857H42.1964C41.654 61.7857 41.2143 61.346 41.2143 60.8036V48.0357H64.7857V60.8036Z" fill="white"/>
<path d="M47.1071 50H45.1428C44.6004 50 44.1607 50.4397 44.1607 50.9822C44.1607 51.5246 44.6004 51.9643 45.1428 51.9643H47.1071C47.6495 51.9643 48.0893 51.5246 48.0893 50.9822C48.0893 50.4397 47.6495 50 47.1071 50Z" fill="white"/>
<path d="M53.9821 50H52.0179C51.4754 50 51.0357 50.4397 51.0357 50.9822C51.0357 51.5246 51.4754 51.9643 52.0179 51.9643H53.9821C54.5246 51.9643 54.9643 51.5246 54.9643 50.9822C54.9643 50.4397 54.5246 50 53.9821 50Z" fill="white"/>
<path d="M60.8572 50H58.8929C58.3505 50 57.9107 50.4397 57.9107 50.9822C57.9107 51.5246 58.3505 51.9643 58.8929 51.9643H60.8572C61.3996 51.9643 61.8393 51.5246 61.8393 50.9822C61.8393 50.4397 61.3995 50 60.8572 50Z" fill="white"/>
<path d="M47.1071 53.9286H45.1428C44.6004 53.9286 44.1607 54.3683 44.1607 54.9107C44.1607 55.4532 44.6004 55.8929 45.1428 55.8929H47.1071C47.6495 55.8929 48.0893 55.4532 48.0893 54.9107C48.0893 54.3683 47.6495 53.9286 47.1071 53.9286Z" fill="white"/>
<path d="M53.9821 53.9286H52.0179C51.4754 53.9286 51.0357 54.3683 51.0357 54.9107C51.0357 55.4532 51.4754 55.8929 52.0179 55.8929H53.9821C54.5246 55.8929 54.9643 55.4532 54.9643 54.9107C54.9643 54.3683 54.5246 53.9286 53.9821 53.9286Z" fill="white"/>
<path d="M60.8572 53.9286H58.8929C58.3505 53.9286 57.9107 54.3683 57.9107 54.9107C57.9107 55.4532 58.3505 55.8929 58.8929 55.8929H60.8572C61.3996 55.8929 61.8393 55.4532 61.8393 54.9107C61.8393 54.3683 61.3995 53.9286 60.8572 53.9286Z" fill="white"/>
<path d="M47.1071 57.8571H45.1428C44.6004 57.8571 44.1607 58.2968 44.1607 58.8393C44.1607 59.3817 44.6004 59.8214 45.1428 59.8214H47.1071C47.6495 59.8214 48.0893 59.3817 48.0893 58.8392C48.0893 58.2968 47.6495 57.8571 47.1071 57.8571Z" fill="white"/>
<path d="M53.9821 57.8571H52.0179C51.4754 57.8571 51.0357 58.2968 51.0357 58.8393C51.0357 59.3817 51.4754 59.8214 52.0179 59.8214H53.9821C54.5246 59.8214 54.9643 59.3817 54.9643 58.8393C54.9643 58.2968 54.5246 57.8571 53.9821 57.8571Z" fill="white"/>
<path d="M60.8572 57.8571H58.8929C58.3505 57.8571 57.9107 58.2968 57.9107 58.8393C57.9107 59.3817 58.3505 59.8214 58.8929 59.8214H60.8572C61.3996 59.8214 61.8393 59.3817 61.8393 58.8393C61.8393 58.2968 61.3995 57.8571 60.8572 57.8571Z" fill="white"/>
</g>
<defs>
<filter id="filter0_b_22_4" x="-20" y="-20" width="340" height="140" filterUnits="userSpaceOnUse" color-interpolation-filters="sRGB">
<feFlood flood-opacity="0" result="BackgroundImageFix"/>
<feGaussianBlur in="BackgroundImage" stdDeviation="10"/>
<feComposite in2="SourceAlpha" operator="in" result="effect1_backgroundBlur_22_4"/>
<feBlend mode="normal" in="SourceGraphic" in2="effect1_backgroundBlur_22_4" result="shape"/>
</filter>
<clipPath id="clip0_22_4">
<rect width="27.5" height="27.5" fill="white" transform="translate(39.25 36.25)"/>
</clipPath>
</defs>
</svg>
