<svg width="390" height="187" viewBox="0 0 390 187" fill="none" xmlns="http://www.w3.org/2000/svg">
<g filter="url(#filter0_b_1234_716)">
<rect width="390" height="187" rx="20" fill="white" fill-opacity="0.8"/>
</g>
<path d="M113.88 49.24C111.56 49.24 109.784 48.64 108.552 47.44C107.336 46.224 106.728 44.432 106.728 42.064V32.08H109.8V42.04C109.8 43.56 110.144 44.704 110.832 45.472C111.536 46.224 112.552 46.6 113.88 46.6C116.584 46.6 117.936 45.08 117.936 42.04V32.08H120.984V42.064C120.984 44.432 120.384 46.224 119.184 47.44C117.984 48.64 116.216 49.24 113.88 49.24ZM124.759 53.32V37.264H127.687V39.136C128.023 38.496 128.527 37.984 129.199 37.6C129.887 37.216 130.663 37.024 131.527 37.024C132.551 37.024 133.447 37.272 134.215 37.768C134.999 38.264 135.607 38.968 136.039 39.88C136.471 40.776 136.687 41.856 136.687 43.12C136.687 44.368 136.471 45.456 136.039 46.384C135.607 47.296 135.007 48 134.239 48.496C133.471 48.992 132.567 49.24 131.527 49.24C130.695 49.24 129.943 49.064 129.271 48.712C128.615 48.344 128.111 47.856 127.759 47.248V53.32H124.759ZM130.687 46.96C131.583 46.96 132.303 46.64 132.847 46C133.391 45.344 133.663 44.384 133.663 43.12C133.663 41.84 133.391 40.888 132.847 40.264C132.303 39.624 131.583 39.304 130.687 39.304C129.791 39.304 129.071 39.624 128.527 40.264C127.983 40.888 127.711 41.84 127.711 43.12C127.711 44.384 127.983 45.344 128.527 46C129.071 46.64 129.791 46.96 130.687 46.96ZM145.053 49.24C143.821 49.24 142.749 48.992 141.837 48.496C140.925 47.984 140.221 47.264 139.725 46.336C139.229 45.408 138.981 44.32 138.981 43.072C138.981 41.824 139.229 40.752 139.725 39.856C140.221 38.944 140.925 38.248 141.837 37.768C142.749 37.272 143.821 37.024 145.053 37.024C145.805 37.024 146.549 37.144 147.285 37.384C148.021 37.624 148.629 37.96 149.109 38.392L148.221 40.48C147.805 40.112 147.333 39.832 146.805 39.64C146.293 39.448 145.797 39.352 145.317 39.352C144.277 39.352 143.469 39.68 142.893 40.336C142.333 40.976 142.053 41.896 142.053 43.096C142.053 44.28 142.333 45.216 142.893 45.904C143.469 46.576 144.277 46.912 145.317 46.912C145.781 46.912 146.277 46.816 146.805 46.624C147.333 46.432 147.805 46.144 148.221 45.76L149.109 47.872C148.629 48.288 148.013 48.624 147.261 48.88C146.525 49.12 145.789 49.24 145.053 49.24ZM156.547 49.24C155.331 49.24 154.275 48.992 153.379 48.496C152.483 48 151.787 47.296 151.291 46.384C150.795 45.456 150.547 44.368 150.547 43.12C150.547 41.872 150.795 40.792 151.291 39.88C151.787 38.968 152.483 38.264 153.379 37.768C154.275 37.272 155.331 37.024 156.547 37.024C157.763 37.024 158.819 37.272 159.715 37.768C160.611 38.264 161.307 38.968 161.803 39.88C162.299 40.792 162.547 41.872 162.547 43.12C162.547 44.368 162.299 45.456 161.803 46.384C161.307 47.296 160.611 48 159.715 48.496C158.819 48.992 157.763 49.24 156.547 49.24ZM156.547 46.96C157.443 46.96 158.163 46.64 158.707 46C159.251 45.344 159.523 44.384 159.523 43.12C159.523 41.84 159.251 40.888 158.707 40.264C158.163 39.624 157.443 39.304 156.547 39.304C155.651 39.304 154.931 39.624 154.387 40.264C153.843 40.888 153.571 41.84 153.571 43.12C153.571 44.384 153.843 45.344 154.387 46C154.931 46.64 155.651 46.96 156.547 46.96ZM165.551 49V37.264H168.479V39.064C168.831 38.424 169.319 37.928 169.943 37.576C170.567 37.208 171.287 37.024 172.103 37.024C173.863 37.024 175.015 37.792 175.559 39.328C175.927 38.608 176.455 38.048 177.143 37.648C177.831 37.232 178.615 37.024 179.495 37.024C182.135 37.024 183.455 38.632 183.455 41.848V49H180.455V41.968C180.455 41.072 180.303 40.416 179.999 40C179.711 39.584 179.215 39.376 178.511 39.376C177.727 39.376 177.111 39.656 176.663 40.216C176.215 40.76 175.991 41.52 175.991 42.496V49H172.991V41.968C172.991 41.072 172.839 40.416 172.535 40C172.247 39.584 171.759 39.376 171.071 39.376C170.287 39.376 169.671 39.656 169.223 40.216C168.775 40.76 168.551 41.52 168.551 42.496V49H165.551ZM186.838 34.744V31.816H190.198V34.744H186.838ZM187.03 49V37.264H190.03V49H187.03ZM193.627 49V37.264H196.555V39.088C196.955 38.416 197.491 37.904 198.163 37.552C198.851 37.2 199.619 37.024 200.467 37.024C203.235 37.024 204.619 38.632 204.619 41.848V49H201.619V41.992C201.619 41.08 201.443 40.416 201.091 40C200.755 39.584 200.227 39.376 199.507 39.376C198.627 39.376 197.923 39.656 197.395 40.216C196.883 40.76 196.627 41.488 196.627 42.4V49H193.627ZM213.619 53.56C212.531 53.56 211.507 53.432 210.547 53.176C209.603 52.936 208.771 52.56 208.051 52.048L208.915 49.96C209.587 50.408 210.307 50.736 211.075 50.944C211.843 51.168 212.611 51.28 213.379 51.28C215.523 51.28 216.595 50.248 216.595 48.184V46.576C216.259 47.232 215.739 47.752 215.035 48.136C214.347 48.52 213.579 48.712 212.731 48.712C211.675 48.712 210.755 48.472 209.971 47.992C209.187 47.496 208.579 46.808 208.147 45.928C207.715 45.048 207.499 44.024 207.499 42.856C207.499 41.688 207.715 40.672 208.147 39.808C208.579 38.928 209.187 38.248 209.971 37.768C210.755 37.272 211.675 37.024 212.731 37.024C213.611 37.024 214.395 37.224 215.083 37.624C215.771 38.008 216.275 38.528 216.595 39.184V37.264H219.523V47.824C219.523 49.728 219.019 51.16 218.011 52.12C217.003 53.08 215.539 53.56 213.619 53.56ZM213.547 46.432C214.475 46.432 215.211 46.112 215.755 45.472C216.299 44.832 216.571 43.96 216.571 42.856C216.571 41.752 216.299 40.888 215.755 40.264C215.211 39.624 214.475 39.304 213.547 39.304C212.619 39.304 211.883 39.624 211.339 40.264C210.795 40.888 210.523 41.752 210.523 42.856C210.523 43.96 210.795 44.832 211.339 45.472C211.883 46.112 212.619 46.432 213.547 46.432ZM234.428 49V34.648H228.62V32.08H243.308V34.648H237.5V49H234.428ZM243.571 49V37.264H246.499V39.328C247.075 37.936 248.307 37.168 250.195 37.024L251.107 36.952L251.299 39.496L249.571 39.664C247.603 39.856 246.619 40.864 246.619 42.688V49H243.571ZM253.257 34.744V31.816H256.617V34.744H253.257ZM253.449 49V37.264H256.449V49H253.449ZM260.047 53.32V37.264H262.975V39.136C263.311 38.496 263.815 37.984 264.487 37.6C265.175 37.216 265.951 37.024 266.815 37.024C267.839 37.024 268.735 37.272 269.503 37.768C270.287 38.264 270.895 38.968 271.327 39.88C271.759 40.776 271.975 41.856 271.975 43.12C271.975 44.368 271.759 45.456 271.327 46.384C270.895 47.296 270.295 48 269.527 48.496C268.759 48.992 267.855 49.24 266.815 49.24C265.983 49.24 265.231 49.064 264.559 48.712C263.903 48.344 263.399 47.856 263.047 47.248V53.32H260.047ZM265.975 46.96C266.871 46.96 267.591 46.64 268.135 46C268.679 45.344 268.951 44.384 268.951 43.12C268.951 41.84 268.679 40.888 268.135 40.264C267.591 39.624 266.871 39.304 265.975 39.304C265.079 39.304 264.359 39.624 263.815 40.264C263.271 40.888 262.999 41.84 262.999 43.12C262.999 44.384 263.271 45.344 263.815 46C264.359 46.64 265.079 46.96 265.975 46.96ZM279.213 49.24C278.221 49.24 277.293 49.12 276.429 48.88C275.565 48.64 274.845 48.296 274.269 47.848L275.037 45.88C275.629 46.28 276.293 46.592 277.029 46.816C277.765 47.024 278.501 47.128 279.237 47.128C280.005 47.128 280.573 47 280.941 46.744C281.325 46.472 281.517 46.12 281.517 45.688C281.517 45.016 281.021 44.584 280.029 44.392L277.629 43.936C275.597 43.552 274.581 42.496 274.581 40.768C274.581 40 274.789 39.336 275.205 38.776C275.637 38.216 276.229 37.784 276.981 37.48C277.733 37.176 278.597 37.024 279.573 37.024C280.405 37.024 281.205 37.144 281.973 37.384C282.741 37.608 283.397 37.952 283.941 38.416L283.125 40.384C282.661 40 282.101 39.696 281.445 39.472C280.805 39.248 280.189 39.136 279.597 39.136C278.813 39.136 278.229 39.272 277.845 39.544C277.477 39.816 277.293 40.176 277.293 40.624C277.293 41.328 277.749 41.76 278.661 41.92L281.061 42.376C282.101 42.568 282.885 42.92 283.413 43.432C283.957 43.944 284.229 44.632 284.229 45.496C284.229 46.664 283.773 47.584 282.861 48.256C281.949 48.912 280.733 49.24 279.213 49.24Z" fill="#595959"/>
<path d="M110.08 79V66.64H105.08V64.9H117.14V66.64H112.14V79H110.08ZM121.744 79.18C120.757 79.18 119.904 78.9733 119.184 78.56C118.464 78.1467 117.904 77.5667 117.504 76.82C117.117 76.06 116.924 75.16 116.924 74.12C116.924 73.08 117.117 72.1867 117.504 71.44C117.904 70.68 118.464 70.0933 119.184 69.68C119.904 69.2667 120.757 69.06 121.744 69.06C122.704 69.06 123.544 69.2667 124.264 69.68C124.984 70.0933 125.544 70.68 125.944 71.44C126.344 72.1867 126.544 73.08 126.544 74.12C126.544 75.16 126.344 76.06 125.944 76.82C125.544 77.5667 124.984 78.1467 124.264 78.56C123.544 78.9733 122.704 79.18 121.744 79.18ZM121.744 77.62C122.57 77.62 123.237 77.32 123.744 76.72C124.25 76.12 124.504 75.2533 124.504 74.12C124.504 72.9867 124.25 72.1267 123.744 71.54C123.237 70.94 122.57 70.64 121.744 70.64C120.904 70.64 120.23 70.94 119.724 71.54C119.217 72.1267 118.964 72.9867 118.964 74.12C118.964 75.2533 119.217 76.12 119.724 76.72C120.23 77.32 120.904 77.62 121.744 77.62ZM132.932 79.18C132.079 79.18 131.326 78.98 130.672 78.58C130.032 78.1667 129.532 77.58 129.172 76.82C128.812 76.06 128.632 75.16 128.632 74.12C128.632 73.08 128.812 72.1867 129.172 71.44C129.532 70.68 130.032 70.0933 130.672 69.68C131.312 69.2667 132.066 69.06 132.932 69.06C133.666 69.06 134.319 69.22 134.892 69.54C135.466 69.86 135.892 70.2933 136.172 70.84V64.9H138.192V79H136.212V77.3C135.932 77.8867 135.499 78.3467 134.912 78.68C134.339 79.0133 133.679 79.18 132.932 79.18ZM133.452 77.62C134.279 77.62 134.946 77.32 135.452 76.72C135.959 76.12 136.212 75.2533 136.212 74.12C136.212 72.9867 135.959 72.1267 135.452 71.54C134.946 70.94 134.279 70.64 133.452 70.64C132.612 70.64 131.939 70.94 131.432 71.54C130.926 72.1267 130.672 72.9867 130.672 74.12C130.672 75.2533 130.926 76.12 131.432 76.72C131.939 77.32 132.612 77.62 133.452 77.62ZM144.549 79.18C143.869 79.18 143.262 79.0467 142.729 78.78C142.195 78.5133 141.769 78.1533 141.449 77.7C141.142 77.2467 140.989 76.7333 140.989 76.16C140.989 75.44 141.169 74.8733 141.529 74.46C141.902 74.0467 142.509 73.7467 143.349 73.56C144.202 73.3733 145.349 73.28 146.789 73.28H147.469V72.76C147.469 72 147.309 71.4533 146.989 71.12C146.669 70.7867 146.142 70.62 145.409 70.62C144.849 70.62 144.289 70.7067 143.729 70.88C143.169 71.04 142.595 71.3 142.009 71.66L141.389 70.24C141.895 69.88 142.529 69.5933 143.289 69.38C144.049 69.1667 144.775 69.06 145.469 69.06C146.802 69.06 147.789 69.38 148.429 70.02C149.069 70.6467 149.389 71.6333 149.389 72.98V79H147.489V77.38C147.249 77.94 146.875 78.38 146.369 78.7C145.862 79.02 145.255 79.18 144.549 79.18ZM144.949 77.74C145.669 77.74 146.269 77.4867 146.749 76.98C147.229 76.4733 147.469 75.8333 147.469 75.06V74.52H146.809C145.835 74.52 145.069 74.5667 144.509 74.66C143.962 74.7533 143.569 74.9133 143.329 75.14C143.102 75.3533 142.989 75.6533 142.989 76.04C142.989 76.5467 143.162 76.96 143.509 77.28C143.855 77.5867 144.335 77.74 144.949 77.74ZM153.473 82.6L155.213 78.74L151.133 69.24H153.293L156.293 76.66L159.333 69.24H161.413L155.593 82.6H153.473ZM172.038 79.18C171.358 79.18 170.751 79.0467 170.218 78.78C169.684 78.5133 169.258 78.1533 168.938 77.7C168.631 77.2467 168.478 76.7333 168.478 76.16C168.478 75.44 168.658 74.8733 169.018 74.46C169.391 74.0467 169.998 73.7467 170.838 73.56C171.691 73.3733 172.838 73.28 174.278 73.28H174.958V72.76C174.958 72 174.798 71.4533 174.478 71.12C174.158 70.7867 173.631 70.62 172.898 70.62C172.338 70.62 171.778 70.7067 171.218 70.88C170.658 71.04 170.084 71.3 169.498 71.66L168.878 70.24C169.384 69.88 170.018 69.5933 170.778 69.38C171.538 69.1667 172.264 69.06 172.958 69.06C174.291 69.06 175.278 69.38 175.918 70.02C176.558 70.6467 176.878 71.6333 176.878 72.98V79H174.978V77.38C174.738 77.94 174.364 78.38 173.858 78.7C173.351 79.02 172.744 79.18 172.038 79.18ZM172.438 77.74C173.158 77.74 173.758 77.4867 174.238 76.98C174.718 76.4733 174.958 75.8333 174.958 75.06V74.52H174.298C173.324 74.52 172.558 74.5667 171.998 74.66C171.451 74.7533 171.058 74.9133 170.818 75.14C170.591 75.3533 170.478 75.6533 170.478 76.04C170.478 76.5467 170.651 76.96 170.998 77.28C171.344 77.5867 171.824 77.74 172.438 77.74ZM184.22 79.18C182.993 79.18 182.08 78.8667 181.48 78.24C180.88 77.6133 180.58 76.7067 180.58 75.52V70.8H178.68V69.24H180.58V66.3H182.6V69.24H185.62V70.8H182.6V75.36C182.6 76.0667 182.747 76.6 183.04 76.96C183.347 77.32 183.84 77.5 184.52 77.5C184.733 77.5 184.94 77.48 185.14 77.44C185.34 77.3867 185.54 77.3267 185.74 77.26L186.06 78.78C185.86 78.9 185.58 78.9933 185.22 79.06C184.873 79.14 184.54 79.18 184.22 79.18ZM194.338 79V77.26H197.538V67.3L195.038 68.86L194.198 67.32L198.138 64.9H199.598V77.26H202.598V79H194.338ZM206.091 79V77.46L210.791 72.42C211.444 71.7133 211.911 71.0733 212.191 70.5C212.484 69.9267 212.631 69.3467 212.631 68.76C212.631 67.24 211.737 66.48 209.951 66.48C208.591 66.48 207.371 66.9933 206.291 68.02L205.551 66.44C206.084 65.92 206.764 65.5067 207.591 65.2C208.417 64.88 209.277 64.72 210.171 64.72C211.624 64.72 212.737 65.0533 213.511 65.72C214.297 66.3867 214.691 67.34 214.691 68.58C214.691 69.42 214.484 70.24 214.071 71.04C213.671 71.84 213.037 72.6933 212.171 73.6L208.691 77.26H215.251V79H206.091ZM217.963 79V76.62H220.343V79H217.963ZM227.929 79.18C226.289 79.18 225.036 78.56 224.169 77.32C223.316 76.0667 222.889 74.2733 222.889 71.94C222.889 69.5667 223.316 67.7733 224.169 66.56C225.036 65.3333 226.289 64.72 227.929 64.72C229.582 64.72 230.836 65.3333 231.689 66.56C232.542 67.7733 232.969 69.56 232.969 71.92C232.969 74.2667 232.536 76.0667 231.669 77.32C230.816 78.56 229.569 79.18 227.929 79.18ZM227.929 77.46C228.942 77.46 229.696 77.0133 230.189 76.12C230.682 75.2267 230.929 73.8267 230.929 71.92C230.929 70.0133 230.682 68.6267 230.189 67.76C229.709 66.88 228.956 66.44 227.929 66.44C226.916 66.44 226.162 66.88 225.669 67.76C225.176 68.64 224.929 70.0267 224.929 71.92C224.929 73.8267 225.176 75.2267 225.669 76.12C226.162 77.0133 226.916 77.46 227.929 77.46ZM240.321 79.18C238.681 79.18 237.428 78.56 236.561 77.32C235.708 76.0667 235.281 74.2733 235.281 71.94C235.281 69.5667 235.708 67.7733 236.561 66.56C237.428 65.3333 238.681 64.72 240.321 64.72C241.974 64.72 243.228 65.3333 244.081 66.56C244.934 67.7733 245.361 69.56 245.361 71.92C245.361 74.2667 244.928 76.0667 244.061 77.32C243.208 78.56 241.961 79.18 240.321 79.18ZM240.321 77.46C241.334 77.46 242.088 77.0133 242.581 76.12C243.074 75.2267 243.321 73.8267 243.321 71.92C243.321 70.0133 243.074 68.6267 242.581 67.76C242.101 66.88 241.348 66.44 240.321 66.44C239.308 66.44 238.554 66.88 238.061 67.76C237.568 68.64 237.321 70.0267 237.321 71.92C237.321 73.8267 237.568 75.2267 238.061 76.12C238.554 77.0133 239.308 77.46 240.321 77.46ZM254.007 79V64.9H259.847C261.367 64.9 262.541 65.28 263.367 66.04C264.194 66.7867 264.607 67.84 264.607 69.2C264.607 70.5733 264.194 71.64 263.367 72.4C262.541 73.1467 261.367 73.52 259.847 73.52H256.087V79H254.007ZM256.087 71.86H259.547C261.574 71.86 262.587 70.9733 262.587 69.2C262.587 67.44 261.574 66.56 259.547 66.56H256.087V71.86ZM267.279 79V64.9H269.019L274.239 74.64L279.439 64.9H281.139V79H279.279V68.66L274.859 76.84H273.599L269.159 68.7V79H267.279Z" fill="#545567"/>
<rect x="105" y="109" width="180" height="50" rx="25" fill="#B25A59"/>
<path d="M152.98 141.18L152.8 139.08L154.22 139C155.407 138.92 156 138.267 156 137.04V126.9H158.56V137.02C158.56 139.553 157.247 140.913 154.62 141.1L152.98 141.18ZM165.869 141.2C164.856 141.2 163.976 140.993 163.229 140.58C162.483 140.167 161.903 139.58 161.489 138.82C161.076 138.047 160.869 137.14 160.869 136.1C160.869 135.06 161.076 134.16 161.489 133.4C161.903 132.64 162.483 132.053 163.229 131.64C163.976 131.227 164.856 131.02 165.869 131.02C166.883 131.02 167.763 131.227 168.509 131.64C169.256 132.053 169.836 132.64 170.249 133.4C170.663 134.16 170.869 135.06 170.869 136.1C170.869 137.14 170.663 138.047 170.249 138.82C169.836 139.58 169.256 140.167 168.509 140.58C167.763 140.993 166.883 141.2 165.869 141.2ZM165.869 139.3C166.616 139.3 167.216 139.033 167.669 138.5C168.123 137.953 168.349 137.153 168.349 136.1C168.349 135.033 168.123 134.24 167.669 133.72C167.216 133.187 166.616 132.92 165.869 132.92C165.123 132.92 164.523 133.187 164.069 133.72C163.616 134.24 163.389 135.033 163.389 136.1C163.389 137.153 163.616 137.953 164.069 138.5C164.523 139.033 165.123 139.3 165.869 139.3ZM172.773 129.12V126.68H175.573V129.12H172.773ZM172.933 141V131.22H175.433V141H172.933ZM178.03 141V131.22H180.47V132.74C180.804 132.18 181.25 131.753 181.81 131.46C182.384 131.167 183.024 131.02 183.73 131.02C186.037 131.02 187.19 132.36 187.19 135.04V141H184.69V135.16C184.69 134.4 184.544 133.847 184.25 133.5C183.97 133.153 183.53 132.98 182.93 132.98C182.197 132.98 181.61 133.213 181.17 133.68C180.744 134.133 180.53 134.74 180.53 135.5V141H178.03ZM195.36 141V126.9H197.28L204.86 136.74V126.9H207.24V141H205.34L197.74 131.12V141H195.36ZM214.541 141.2C213.528 141.2 212.648 140.993 211.901 140.58C211.155 140.167 210.575 139.58 210.161 138.82C209.748 138.047 209.541 137.14 209.541 136.1C209.541 135.06 209.748 134.16 210.161 133.4C210.575 132.64 211.155 132.053 211.901 131.64C212.648 131.227 213.528 131.02 214.541 131.02C215.555 131.02 216.435 131.227 217.181 131.64C217.928 132.053 218.508 132.64 218.921 133.4C219.335 134.16 219.541 135.06 219.541 136.1C219.541 137.14 219.335 138.047 218.921 138.82C218.508 139.58 217.928 140.167 217.181 140.58C216.435 140.993 215.555 141.2 214.541 141.2ZM214.541 139.3C215.288 139.3 215.888 139.033 216.341 138.5C216.795 137.953 217.021 137.153 217.021 136.1C217.021 135.033 216.795 134.24 216.341 133.72C215.888 133.187 215.288 132.92 214.541 132.92C213.795 132.92 213.195 133.187 212.741 133.72C212.288 134.24 212.061 135.033 212.061 136.1C212.061 137.153 212.288 137.953 212.741 138.5C213.195 139.033 213.795 139.3 214.541 139.3ZM224.109 141L220.249 131.22H222.809L225.309 138.1L227.829 131.22H229.589L232.109 138.14L234.609 131.22H237.029L233.189 141H231.009L228.629 134.7L226.289 141H224.109Z" fill="white"/>
<rect x="16" y="25" width="82" height="93" rx="8" fill="#F0C53E"/>
<path fill-rule="evenodd" clip-rule="evenodd" d="M35.5 92.1282C34.149 92.1282 33.05 91.2921 33.05 90.2643V67.3659C33.05 66.3381 34.149 65.5021 35.5 65.5021H77.5C78.851 65.5021 79.95 66.3381 79.95 67.3659V90.2643C79.95 91.2921 78.851 92.1282 77.5 92.1282H35.5Z" fill="#EE5060"/>
<path fill-rule="evenodd" clip-rule="evenodd" d="M37.6 92.9263C36.9077 92.9263 36.2311 93.0825 35.6555 93.3751C35.0799 93.6676 34.6313 94.0835 34.3664 94.57C34.1015 95.0565 34.0322 95.5919 34.1672 96.1084C34.3023 96.6249 34.6356 97.0993 35.1251 97.4717C35.6146 97.8441 36.2382 98.0977 36.9172 98.2004C37.5961 98.3032 38.2998 98.2504 38.9394 98.0489C39.5789 97.8474 40.1255 97.5061 40.5101 97.0682C40.8947 96.6304 41.1 96.1156 41.1 95.589V92.9263H37.6Z" fill="#2C2D32"/>
<path d="M37.6 97.1875C38.7598 97.1875 39.7 96.4722 39.7 95.5898C39.7 94.7073 38.7598 93.992 37.6 93.992C36.4402 93.992 35.5 94.7073 35.5 95.5898C35.5 96.4722 36.4402 97.1875 37.6 97.1875Z" fill="#495E74"/>
<path fill-rule="evenodd" clip-rule="evenodd" d="M75.4 92.9263C76.0923 92.9263 76.769 93.0825 77.3445 93.3751C77.9201 93.6676 78.3687 94.0835 78.6336 94.57C78.8985 95.0565 78.9678 95.5919 78.8328 96.1084C78.6977 96.6249 78.3644 97.0993 77.8749 97.4717C77.3854 97.8441 76.7618 98.0977 76.0828 98.2004C75.4039 98.3032 74.7002 98.2504 74.0606 98.0489C73.4211 97.8474 72.8745 97.5061 72.4899 97.0682C72.1053 96.6304 71.9 96.1156 71.9 95.589V92.9263H75.4Z" fill="#2C2D32"/>
<path d="M75.4 97.1875C76.5598 97.1875 77.5 96.4722 77.5 95.5898C77.5 94.7073 76.5598 93.992 75.4 93.992C74.2402 93.992 73.3 94.7073 73.3 95.5898C73.3 96.4722 74.2402 97.1875 75.4 97.1875Z" fill="#495E74"/>
<path fill-rule="evenodd" clip-rule="evenodd" d="M65.6 64.7033V48.7277C65.6 48.304 65.3787 47.8976 64.9849 47.598C64.5911 47.2984 64.0569 47.1301 63.5 47.1301H49.5C48.943 47.1301 48.4089 47.2984 48.0151 47.598C47.6212 47.8976 47.4 48.304 47.4 48.7277V64.7033H44.6V47.6626C44.6 46.9564 44.9687 46.2792 45.6251 45.7799C46.2815 45.2805 47.1717 45 48.1 45H64.9C65.8282 45 66.7185 45.2805 67.3748 45.7799C68.0312 46.2792 68.4 46.9564 68.4 47.6626V64.7033H65.6Z" fill="#495E74"/>
<path fill-rule="evenodd" clip-rule="evenodd" d="M68.3706 48.1952V47.4422C68.2215 46.0768 66.734 45 64.9 45H48.1C47.1717 45 46.2815 45.2805 45.6251 45.7799C44.9687 46.2792 44.6 46.9565 44.6 47.6626V49.7927C44.6 50.0752 44.7475 50.3461 45.01 50.5458C45.2726 50.7456 45.6287 50.8578 46 50.8578C46.3713 50.8578 46.7274 50.7456 46.9899 50.5458C47.2525 50.3461 47.4 50.0752 47.4 49.7927V48.7277C47.4 48.304 47.6212 47.8976 48.0151 47.598C48.4089 47.2984 48.943 47.1301 49.5 47.1301H63.5C64.0569 47.1301 64.5911 47.2984 64.9849 47.598C65.3787 47.8976 65.6 48.304 65.6 48.7277V49.7927C65.6 50.0752 65.7475 50.3461 66.01 50.5458C66.2726 50.7456 66.6287 50.8578 67 50.8578C67.3713 50.8578 67.7274 50.7456 67.9899 50.5458C68.2525 50.3461 68.4 50.0752 68.4 49.7927V48.1952H68.3706Z" fill="#2C2D32"/>
<path fill-rule="evenodd" clip-rule="evenodd" d="M65.6294 64.7033H71.242L75.4 67.8665L62.7517 77.4886L55.7874 72.1905L65.6294 64.7033Z" fill="#EBECED"/>
<path fill-rule="evenodd" clip-rule="evenodd" d="M44.6 64.7033H47.4V89.7319H44.6V64.7033ZM65.6 64.7033H68.4V89.7319H65.6V64.7033Z" fill="#B25A59"/>
<path fill-rule="evenodd" clip-rule="evenodd" d="M47.4 77.4838H44.6C44.2287 77.4838 43.8726 77.596 43.6101 77.7958C43.3475 77.9956 43.2 78.2665 43.2 78.549V80.6793C43.2 80.9618 43.3475 81.2328 43.6101 81.4325C43.8726 81.6323 44.2287 81.7445 44.6 81.7445H47.4C47.7713 81.7445 48.1274 81.6323 48.3899 81.4325C48.6525 81.2328 48.8 80.9618 48.8 80.6793V78.549C48.8 78.2665 48.6525 77.9956 48.3899 77.7958C48.1274 77.596 47.7713 77.4838 47.4 77.4838ZM47.4 80.6793H44.6V78.549H47.4V80.6793Z" fill="#F0C419"/>
<path fill-rule="evenodd" clip-rule="evenodd" d="M67 87.6017L65.6 86.5367V92.9269H68.4V86.5367L67 87.6017ZM44.6 86.5367V92.9269H47.4V86.5367L46 87.6017L44.6 86.5367ZM46 77.4838C46.1856 77.4838 46.3637 77.4277 46.4949 77.3279C46.6262 77.228 46.7 77.0925 46.7 76.9513C46.7 76.8101 46.6262 76.6746 46.4949 76.5748C46.3637 76.4749 46.1856 76.4188 46 76.4188C45.8143 76.4188 45.6363 76.4749 45.505 76.5748C45.3737 76.6746 45.3 76.8101 45.3 76.9513C45.3 77.0925 45.3737 77.228 45.505 77.3279C45.6363 77.4277 45.8143 77.4838 46 77.4838ZM46 74.8212C46.1856 74.8212 46.3637 74.7651 46.4949 74.6653C46.6262 74.5654 46.7 74.4299 46.7 74.2887C46.7 74.1475 46.6262 74.012 46.4949 73.9122C46.3637 73.8123 46.1856 73.7562 46 73.7562C45.8143 73.7562 45.6363 73.8123 45.505 73.9122C45.3737 74.012 45.3 74.1475 45.3 74.2887C45.3 74.4299 45.3737 74.5654 45.505 74.6653C45.6363 74.7651 45.8143 74.8212 46 74.8212ZM46 72.1586C46.1856 72.1586 46.3637 72.1025 46.4949 72.0026C46.6262 71.9028 46.7 71.7673 46.7 71.6261C46.7 71.4849 46.6262 71.3494 46.4949 71.2495C46.3637 71.1497 46.1856 71.0936 46 71.0936C45.8143 71.0936 45.6363 71.1497 45.505 71.2495C45.3737 71.3494 45.3 71.4849 45.3 71.6261C45.3 71.7673 45.3737 71.9028 45.505 72.0026C45.6363 72.1025 45.8143 72.1586 46 72.1586ZM46 69.496C46.1856 69.496 46.3637 69.4399 46.4949 69.34C46.6262 69.2402 46.7 69.1047 46.7 68.9635C46.7 68.8223 46.6262 68.6868 46.4949 68.5869C46.3637 68.4871 46.1856 68.431 46 68.431C45.8143 68.431 45.6363 68.4871 45.505 68.5869C45.3737 68.6868 45.3 68.8223 45.3 68.9635C45.3 69.1047 45.3737 69.2402 45.505 69.34C45.6363 69.4399 45.8143 69.496 46 69.496ZM67 77.4838C67.1856 77.4838 67.3637 77.4277 67.4949 77.3279C67.6262 77.228 67.7 77.0925 67.7 76.9513C67.7 76.8101 67.6262 76.6746 67.4949 76.5748C67.3637 76.4749 67.1856 76.4188 67 76.4188C66.8143 76.4188 66.6363 76.4749 66.505 76.5748C66.3737 76.6746 66.3 76.8101 66.3 76.9513C66.3 77.0925 66.3737 77.228 66.505 77.3279C66.6363 77.4277 66.8143 77.4838 67 77.4838ZM67 74.8212C67.1856 74.8212 67.3637 74.7651 67.4949 74.6653C67.6262 74.5654 67.7 74.4299 67.7 74.2887C67.7 74.1475 67.6262 74.012 67.4949 73.9122C67.3637 73.8123 67.1856 73.7562 67 73.7562C66.8143 73.7562 66.6363 73.8123 66.505 73.9122C66.3737 74.012 66.3 74.1475 66.3 74.2887C66.3 74.4299 66.3737 74.5654 66.505 74.6653C66.6363 74.7651 66.8143 74.8212 67 74.8212ZM67 72.1586C67.1856 72.1586 67.3637 72.1025 67.4949 72.0026C67.6262 71.9028 67.7 71.7673 67.7 71.6261C67.7 71.4849 67.6262 71.3494 67.4949 71.2495C67.3637 71.1497 67.1856 71.0936 67 71.0936C66.8143 71.0936 66.6363 71.1497 66.505 71.2495C66.3737 71.3494 66.3 71.4849 66.3 71.6261C66.3 71.7673 66.3737 71.9028 66.505 72.0026C66.6363 72.1025 66.8143 72.1586 67 72.1586ZM67 69.496C67.1856 69.496 67.3637 69.4399 67.4949 69.34C67.6262 69.2402 67.7 69.1047 67.7 68.9635C67.7 68.8223 67.6262 68.6868 67.4949 68.5869C67.3637 68.4871 67.1856 68.431 67 68.431C66.8143 68.431 66.6363 68.4871 66.505 68.5869C66.3737 68.6868 66.3 68.8223 66.3 68.9635C66.3 69.1047 66.3737 69.2402 66.505 69.34C66.6363 69.4399 66.8143 69.496 67 69.496ZM46 80.1464C46.1856 80.1464 46.3637 80.0903 46.4949 79.9905C46.6262 79.8906 46.7 79.7551 46.7 79.6139C46.7 79.4727 46.6262 79.3372 46.4949 79.2374C46.3637 79.1375 46.1856 79.0814 46 79.0814C45.8143 79.0814 45.6363 79.1375 45.505 79.2374C45.3737 79.3372 45.3 79.4727 45.3 79.6139C45.3 79.7551 45.3737 79.8906 45.505 79.9905C45.6363 80.0903 45.8143 80.1464 46 80.1464ZM67 80.1464C67.1856 80.1464 67.3637 80.0903 67.4949 79.9905C67.6262 79.8906 67.7 79.7551 67.7 79.6139C67.7 79.4727 67.6262 79.3372 67.4949 79.2374C67.3637 79.1375 67.1856 79.0814 67 79.0814C66.8143 79.0814 66.6363 79.1375 66.505 79.2374C66.3737 79.3372 66.3 79.4727 66.3 79.6139C66.3 79.7551 66.3737 79.8906 66.505 79.9905C66.6363 80.0903 66.8143 80.1464 67 80.1464Z" fill="#90241D"/>
<path fill-rule="evenodd" clip-rule="evenodd" d="M47.4 78.549V80.6793H44.6L43.6102 81.4324C43.8636 81.6252 44.2136 81.7445 44.6 81.7445H47.4C47.7713 81.7445 48.1274 81.6323 48.39 81.4325C48.6525 81.2328 48.8 80.9618 48.8 80.6793V78.549C48.8 78.255 48.6432 77.9887 48.3898 77.7959L47.4 78.549Z" fill="#FCF062"/>
<path fill-rule="evenodd" clip-rule="evenodd" d="M68.4 77.4838H65.6C65.2287 77.4838 64.8726 77.596 64.6101 77.7958C64.3475 77.9956 64.2 78.2665 64.2 78.549V80.6793C64.2 80.9618 64.3475 81.2328 64.6101 81.4325C64.8726 81.6323 65.2287 81.7445 65.6 81.7445H68.4C68.7713 81.7445 69.1274 81.6323 69.3899 81.4325C69.6525 81.2328 69.8 80.9618 69.8 80.6793V78.549C69.8 78.2665 69.6525 77.9956 69.3899 77.7958C69.1274 77.596 68.7713 77.4838 68.4 77.4838ZM68.4 80.6793H65.6V78.549H68.4V80.6793Z" fill="#F0C419"/>
<path fill-rule="evenodd" clip-rule="evenodd" d="M68.4 78.549V80.6793H65.6L64.6102 81.4324C64.8636 81.6252 65.2136 81.7445 65.6 81.7445H68.4C68.7713 81.7445 69.1274 81.6323 69.39 81.4325C69.6525 81.2328 69.8 80.9618 69.8 80.6793V78.549C69.8 78.255 69.6432 77.9887 69.3898 77.7959L68.4 78.549Z" fill="#FCF062"/>
<path d="M77.5 66.3009C78.2721 66.3009 78.9 66.7785 78.9 67.3659V90.2643C78.9 90.8517 78.2721 91.3294 77.5 91.3294H35.5C34.7279 91.3294 34.1 90.8517 34.1 90.2643V67.3659C34.1 66.7785 34.7279 66.3009 35.5 66.3009H77.5ZM77.5 64.7033H35.5C34.5717 64.7033 33.6815 64.9838 33.0251 65.4832C32.3687 65.9825 32 66.6597 32 67.3659V90.2643C32 90.9705 32.3687 91.6477 33.0251 92.1471C33.6815 92.6464 34.5717 92.9269 35.5 92.9269H77.5C78.4283 92.9269 79.3185 92.6464 79.9749 92.1471C80.6313 91.6477 81 90.9705 81 90.2643V67.3659C81 66.6597 80.6313 65.9825 79.9749 65.4832C79.3185 64.9838 78.4283 64.7033 77.5 64.7033Z" fill="#B25A59"/>
<defs>
<filter id="filter0_b_1234_716" x="-20" y="-20" width="430" height="227" filterUnits="userSpaceOnUse" color-interpolation-filters="sRGB">
<feFlood flood-opacity="0" result="BackgroundImageFix"/>
<feGaussianBlur in="BackgroundImage" stdDeviation="10"/>
<feComposite in2="SourceAlpha" operator="in" result="effect1_backgroundBlur_1234_716"/>
<feBlend mode="normal" in="SourceGraphic" in2="effect1_backgroundBlur_1234_716" result="shape"/>
</filter>
</defs>
</svg>
